[Header]
FileType HTR
DataType HTRS
FileVersion 1
NumSegments 64
NumFrames 4
DataFrameRate 24
EulerRotationOrder ZYX
CalibrationUnits mm
RotationUnits Degrees
GlobalAxisofGravity Y
BoneLengthAxis Y
ScaleFactor 1.0
[SegmentNames&Hierarchy]
Hips	GLOBAL
Spine	Hips
Spine1	Spine
Spine2	Spine1
Neck	Spine2
Head	Neck
LeftEye	Head
RightEye	Head
LeftShoulder	Spine2
LeftArm	LeftShoulder
LeftForeArm	LeftArm
LeftHand	LeftForeArm
LeftHandThumb1	LeftHand
LeftHandThumb2	LeftHandThumb1
LeftHandThumb3	LeftHandThumb2
LeftHandThumb4	LeftHandThumb3
LeftHandIndex1	LeftHand
LeftHandIndex2	LeftHandIndex1
LeftHandIndex3	LeftHandIndex2
LeftHandIndex4	LeftHandIndex3
LeftHandMiddle1	LeftHand
LeftHandMiddle2	LeftHandMiddle1
LeftHandMiddle3	LeftHandMiddle2
LeftHandMiddle4	LeftHandMiddle3
LeftHandRing1	LeftHand
LeftHandRing2	LeftHandRing1
LeftHandRing3	LeftHandRing2
LeftHandRing4	LeftHandRing3
LeftHandPinky1	LeftHand
LeftHandPinky2	LeftHandPinky1
LeftHandPinky3	LeftHandPinky2
LeftHandPinky4	LeftHandPinky3
RightShoulder	Spine2
RightArm	RightShoulder
RightForeArm	RightArm
RightHand	RightForeArm
RightHandPinky1	RightHand
RightHandPinky2	RightHandPinky1
RightHandPinky3	RightHandPinky2
RightHandPinky4	RightHandPinky3
RightHandRing1	RightHand
RightHandRing2	RightHandRing1
RightHandRing3	RightHandRing2
RightHandRing4	RightHandRing3
RightHandMiddle1	RightHand
RightHandMiddle2	RightHandMiddle1
RightHandMiddle3	RightHandMiddle2
RightHandMiddle4	RightHandMiddle3
RightHandIndex1	RightHand
RightHandIndex2	RightHandIndex1
RightHandIndex3	RightHandIndex2
RightHandIndex4	RightHandIndex3
RightHandThumb1	RightHand
RightHandThumb2	RightHandThumb1
RightHandThumb3	RightHandThumb2
RightHandThumb4	RightHandThumb3
LeftUpLeg	Hips
LeftLeg	LeftUpLeg
LeftFoot	LeftLeg
LeftToeBase	LeftFoot
RightUpLeg	Hips
RightLeg	RightUpLeg
RightFoot	RightLeg
RightToeBase	RightFoot
[BasePosition]
Hips	0	0	0	0	0	0	1
Spine	0	0	0	0	0	0	1
Spine1	0	0	0	0	0	0	1
Spine2	0	0	0	0	0	0	1
Neck	0	0	0	0	0	0	1
Head	0	0	0	0	0	0	1
LeftEye	0	0	0	0	0	0	1
RightEye	0	0	0	0	0	0	1
LeftShoulder	0	0	0	0	0	0	1
LeftArm	0	0	0	0	0	0	1
LeftForeArm	0	0	0	0	0	0	1
LeftHand	0	0	0	0	0	0	1
LeftHandThumb1	0	0	0	0	0	0	1
LeftHandThumb2	0	0	0	0	0	0	1
LeftHandThumb3	0	0	0	0	0	0	1
LeftHandThumb4	0	0	0	0	0	0	1
LeftHandIndex1	0	0	0	0	0	0	1
LeftHandIndex2	0	0	0	0	0	0	1
LeftHandIndex3	0	0	0	0	0	0	1
LeftHandIndex4	0	0	0	0	0	0	1
LeftHandMiddle1	0	0	0	0	0	0	1
LeftHandMiddle2	0	0	0	0	0	0	1
LeftHandMiddle3	0	0	0	0	0	0	1
LeftHandMiddle4	0	0	0	0	0	0	1
LeftHandRing1	0	0	0	0	0	0	1
LeftHandRing2	0	0	0	0	0	0	1
LeftHandRing3	0	0	0	0	0	0	1
LeftHandRing4	0	0	0	0	0	0	1
LeftHandPinky1	0	0	0	0	0	0	1
LeftHandPinky2	0	0	0	0	0	0	1
LeftHandPinky3	0	0	0	0	0	0	1
LeftHandPinky4	0	0	0	0	0	0	1
RightShoulder	0	0	0	0	0	0	1
RightArm	0	0	0	0	0	0	1
RightForeArm	0	0	0	0	0	0	1
RightHand	0	0	0	0	0	0	1
RightHandPinky1	0	0	0	0	0	0	1
RightHandPinky2	0	0	0	0	0	0	1
RightHandPinky3	0	0	0	0	0	0	1
RightHandPinky4	0	0	0	0	0	0	1
RightHandRing1	0	0	0	0	0	0	1
RightHandRing2	0	0	0	0	0	0	1
RightHandRing3	0	0	0	0	0	0	1
RightHandRing4	0	0	0	0	0	0	1
RightHandMiddle1	0	0	0	0	0	0	1
RightHandMiddle2	0	0	0	0	0	0	1
RightHandMiddle3	0	0	0	0	0	0	1
RightHandMiddle4	0	0	0	0	0	0	1
RightHandIndex1	0	0	0	0	0	0	1
RightHandIndex2	0	0	0	0	0	0	1
RightHandIndex3	0	0	0	0	0	0	1
RightHandIndex4	0	0	0	0	0	0	1
RightHandThumb1	0	0	0	0	0	0	1
RightHandThumb2	0	0	0	0	0	0	1
RightHandThumb3	0	0	0	0	0	0	1
RightHandThumb4	0	0	0	0	0	0	1
LeftUpLeg	0	0	0	0	0	0	1
LeftLeg	0	0	0	0	0	0	1
LeftFoot	0	0	0	0	0	0	1
LeftToeBase	0	0	0	0	0	0	1
RightUpLeg	0	0	0	0	0	0	1
RightLeg	0	0	0	0	0	0	1
RightFoot	0	0	0	0	0	0	1
RightToeBase	0	0	0	0	0	0	1
[Hips]
164	-3.497285366	1033.447998	17.91035843	-3.869366169	-5.364274025	-3.062124968	1.0
165	-3.195068836	1033.454102	17.47281075	-3.849633217	-5.382223606	-3.07483387	1.0
166	-2.928996325	1033.48999	17.08836365	-3.814979315	-5.396225929	-3.088932753	1.0
167	-2.661369801	1033.542847	16.72373009	-3.785724878	-5.417979717	-3.100152016	1.0
[Spine]
164	0	101.8159943	1.315000057	4.229235649	1.706124544	3.181131363	1.0
165	0	101.8159943	1.315000057	4.198211193	1.678472161	3.160716057	1.0
166	0	101.8159943	1.315000057	4.142179966	1.645566106	3.139320374	1.0
167	0	101.8159943	1.315000057	4.086732864	1.62063539	3.116405487	1.0
[Spine1]
164	0	100.8349991	-10.00800037	1.402255535	0.4495132565	1.687940121	1.0
165	0	100.8349991	-10.00800037	1.396451473	0.4378337562	1.682170868	1.0
166	0	100.8349991	-10.00800037	1.381967664	0.4237063229	1.676005006	1.0
167	0	100.8349991	-10.00800037	1.367783308	0.412853539	1.669009566	1.0
[Spine2]
164	0	91	-13.73399925	1.377334595	0.4725904465	1.689196706	1.0
165	0	91	-13.73399925	1.371485591	0.4609308541	1.683591366	1.0
166	0	91	-13.73399925	1.356964827	0.4468010962	1.677619457	1.0
167	0	91	-13.73399925	1.342743039	0.4359394014	1.670799613	1.0
[Neck]
164	0	166.7169952	-25.16200066	6.075200081	-0.2608408034	0.4633384943	1.0
165	0	166.7169952	-25.16200066	6.001121998	-0.2569902837	0.4875919223	1.0
166	0	166.7169952	-25.16200066	5.94213438	-0.2516202629	0.5009742975	1.0
167	0	166.7169952	-25.16200066	5.890885353	-0.2489708811	0.5128231049	1.0
[Head]
164	0	96.17900085	16.84999847	-8.659418106	0.8694081306	0.01320771314	1.0
165	0	96.17900085	16.84999847	-8.730493546	0.9066846371	0.006003125105	1.0
166	0	96.17900085	16.84999847	-8.739901543	0.9357018471	-0.01685504429	1.0
167	0	96.17900085	16.84999847	-8.713617325	0.95646137	-0.04705594853	1.0
[LeftEye]
164	30.6760006	64.09500122	92.83599854	0	0	0	1.0
165	30.6760006	64.09500122	92.83599854	0	0	0	1.0
166	30.6760006	64.09500122	92.83599854	0	0	0	1.0
167	30.6760006	64.09500122	92.83599854	0	0	0	1.0
[RightEye]
164	-30.6760006	64.09500122	92.83499908	0	0	0	1.0
165	-30.6760006	64.09500122	92.83499908	0	0	0	1.0
166	-30.6760006	64.09500122	92.83499908	0	0	0	1.0
167	-30.6760006	64.09500122	92.83499908	0	0	0	1.0
[LeftShoulder]
164	45.70400238	109.4599991	-26.28000069	4.985558033	-17.34891319	-13.42394829	1.0
165	45.70400238	109.4599991	-26.28000069	4.972446442	-17.32735634	-13.36231327	1.0
166	45.70400238	109.4599991	-26.28000069	4.958444595	-17.29133987	-13.30128479	1.0
167	45.70400238	109.4599991	-26.28000069	4.94482708	-17.25990295	-13.24027729	1.0
[LeftArm]
164	105.923996	-5.24600029	-22.32099915	20.21894836	-3.923897743	-71.12675476	1.0
165	105.923996	-5.24600029	-22.32099915	20.25318527	-3.863625765	-71.16970062	1.0
166	105.923996	-5.24600029	-22.32099915	20.24486351	-3.765156269	-71.21196747	1.0
167	105.923996	-5.24600029	-22.32099915	20.21878815	-3.658107042	-71.25646973	1.0
[LeftForeArm]
164	278.414978	-0.0009999999311	0	-2.491277655e-06	-1.545298338	-0.0001894776797	1.0
165	278.414978	-0.0009999999311	0	-6.442875019e-06	-1.531564832	-0.0001815421128	1.0
166	278.414978	-0.0009999999311	0	-1.430175871e-05	-1.538052797	-0.0001725599577	1.0
167	278.414978	-0.0009999999311	0	-2.396576519e-06	-1.550644994	-0.0002285982773	1.0
[LeftHand]
164	283.2879944	0	0	-33.56627274	-4.90727663	-3.590250731	1.0
165	283.2879944	0	0	-33.52386093	-4.856929302	-3.659651756	1.0
166	283.2879944	0	0	-33.51265335	-4.846115112	-3.733760595	1.0
167	283.2879944	0	0	-33.50741196	-4.855744839	-3.797855377	1.0
[LeftHandThumb1]
164	24.6609993	-15.75	26.8239994	-0.4889889657	2.201390743	4.818541527	1.0
165	24.6609993	-15.75	26.8239994	-0.4889889657	2.201390743	4.818541527	1.0
166	24.6609993	-15.75	26.8239994	-0.4889889657	2.201390743	4.818541527	1.0
167	24.6609993	-15.75	26.8239994	-0.4889889657	2.201390743	4.818541527	1.0
[LeftHandThumb2]
164	32.29800034	-18.64699936	18.64699936	19.88581276	19.96446037	23.26738167	1.0
165	32.29800034	-18.64699936	18.64699936	19.88581276	19.96446037	23.26738167	1.0
166	32.29800034	-18.64699936	18.64699936	19.88581276	19.96446037	23.26738167	1.0
167	32.29800034	-18.64699936	18.64699936	19.88581276	19.96446037	23.26738167	1.0
[LeftHandThumb3]
164	26.52600098	-15.31499958	15.31499958	-13.14535904	5.551738262	7.967928886	1.0
165	26.52600098	-15.31499958	15.31499958	-13.14535904	5.551738262	7.967928886	1.0
166	26.52600098	-15.31499958	15.31499958	-13.14535904	5.551738262	7.967928886	1.0
167	26.52600098	-15.31499958	15.31499958	-13.14535904	5.551738262	7.967928886	1.0
[LeftHandThumb4]
164	19.54599953	-11.28499985	11.28499985	0	0	0	1.0
165	19.54599953	-11.28499985	11.28499985	0	0	0	1.0
166	19.54599953	-11.28499985	11.28499985	0	0	0	1.0
167	19.54599953	-11.28499985	11.28499985	0	0	0	1.0
[LeftHandIndex1]
164	91.09299469	-5.170999527	22.60099792	0.1480516791	-0.9618676901	-7.594518185	1.0
165	91.09299469	-5.170999527	22.60099792	0.1480516791	-0.9618676901	-7.594518185	1.0
166	91.09299469	-5.170999527	22.60099792	0.1480516791	-0.9618676901	-7.594518185	1.0
167	91.09299469	-5.170999527	22.60099792	0.1480516791	-0.9618676901	-7.594518185	1.0
[LeftHandIndex2]
164	36.76399994	0	0	-0.2667043209	1.745171905	-17.37646866	1.0
165	36.76399994	0	0	-0.2667043209	1.745171905	-17.37646866	1.0
166	36.76399994	0	0	-0.2667043209	1.745171905	-17.37646866	1.0
167	36.76399994	0	0	-0.2667043209	1.745171905	-17.37646866	1.0
[LeftHandIndex3]
164	28.83100128	0	0	-0.05742863193	0.817338407	-8.038370132	1.0
165	28.83100128	0	0	-0.05742863193	0.817338407	-8.038370132	1.0
166	28.83100128	0	0	-0.05742863193	0.817338407	-8.038370132	1.0
167	28.83100128	0	0	-0.05742863193	0.817338407	-8.038370132	1.0
[LeftHandIndex4]
164	23.92700005	0	0	0	0	0	1.0
165	23.92700005	0	0	0	0	0	1.0
166	23.92700005	0	0	0	0	0	1.0
167	23.92700005	0	0	0	0	0	1.0
[LeftHandMiddle1]
164	95.33399963	0	0	-0.7942916155	2.538622379	-15.71737862	1.0
165	95.33399963	0	0	-0.7942916155	2.538622379	-15.71737862	1.0
166	95.33399963	0	0	-0.7942916155	2.538622379	-15.71737862	1.0
167	95.33399963	0	0	-0.7942916155	2.538622379	-15.71737862	1.0
[LeftHandMiddle2]
164	36.98199844	0	0	-0.267610997	1.748071074	-17.40625954	1.0
165	36.98199844	0	0	-0.267610997	1.748071074	-17.40625954	1.0
166	36.98199844	0	0	-0.267610997	1.748071074	-17.40625954	1.0
167	36.98199844	0	0	-0.267610997	1.748071074	-17.40625954	1.0
[LeftHandMiddle3]
164	29.50900078	0	0	-0.2992140949	1.84580946	-18.41413307	1.0
165	29.50900078	0	0	-0.2992140949	1.84580946	-18.41413307	1.0
166	29.50900078	0	0	-0.2992140949	1.84580946	-18.41413307	1.0
167	29.50900078	0	0	-0.2992140949	1.84580946	-18.41413307	1.0
[LeftHandMiddle4]
164	28.3390007	0	0	0	0	0	1.0
165	28.3390007	0	0	0	0	0	1.0
166	28.3390007	0	0	0	0	0	1.0
167	28.3390007	0	0	0	0	0	1.0
[LeftHandRing1]
164	91.04499817	-0.4390000105	-18.65100098	-1.184956431	3.436642885	-21.16632462	1.0
165	91.04499817	-0.4390000105	-18.65100098	-1.184956431	3.436642885	-21.16632462	1.0
166	91.04499817	-0.4390000105	-18.65100098	-1.184956431	3.436642885	-21.16632462	1.0
167	91.04499817	-0.4390000105	-18.65100098	-1.184956431	3.436642885	-21.16632462	1.0
[LeftHandRing2]
164	31.54000092	0	0	-0.3849357069	2.085560799	-20.91281319	1.0
165	31.54000092	0	0	-0.3849357069	2.085560799	-20.91281319	1.0
166	31.54000092	0	0	-0.3849357069	2.085560799	-20.91281319	1.0
167	31.54000092	0	0	-0.3849357069	2.085560799	-20.91281319	1.0
[LeftHandRing3]
164	29.37700081	0	0	-0.2818065584	1.792707562	-17.86576271	1.0
165	29.37700081	0	0	-0.2818065584	1.792707562	-17.86576271	1.0
166	29.37700081	0	0	-0.2818065584	1.792707562	-17.86576271	1.0
167	29.37700081	0	0	-0.2818065584	1.792707562	-17.86576271	1.0
[LeftHandRing4]
164	26.47500038	0	0	0	0	0	1.0
165	26.47500038	0	0	0	0	0	1.0
166	26.47500038	0	0	0	0	0	1.0
167	26.47500038	0	0	0	0	0	1.0
[LeftHandPinky1]
164	80.77799988	-4.887000084	-38.06099701	-1.708467126	5.355370045	-27.1653862	1.0
165	80.77799988	-4.887000084	-38.06099701	-1.708467126	5.355370045	-27.1653862	1.0
166	80.77799988	-4.887000084	-38.06099701	-1.708467126	5.355370045	-27.1653862	1.0
167	80.77799988	-4.887000084	-38.06099701	-1.708467126	5.355370045	-27.1653862	1.0
[LeftHandPinky2]
164	36	0	0	-0.2676221728	1.748113751	-17.40663528	1.0
165	36	0	0	-0.2676221728	1.748113751	-17.40663528	1.0
166	36	0	0	-0.2676221728	1.748113751	-17.40663528	1.0
167	36	0	0	-0.2676221728	1.748113751	-17.40663528	1.0
[LeftHandPinky3]
164	21.14200211	0	0	-0.2408525199	1.660349369	-16.50663185	1.0
165	21.14200211	0	0	-0.2408525199	1.660349369	-16.50663185	1.0
166	21.14200211	0	0	-0.2408525199	1.660349369	-16.50663185	1.0
167	21.14200211	0	0	-0.2408525199	1.660349369	-16.50663185	1.0
[LeftHandPinky4]
164	19.75699997	0	0	0	0	0	1.0
165	19.75699997	0	0	0	0	0	1.0
166	19.75699997	0	0	0	0	0	1.0
167	19.75699997	0	0	0	0	0	1.0
[RightShoulder]
164	-45.70000076	109.4620056	-26.28000069	5.298628807	15.31983185	15.79285717	1.0
165	-45.70000076	109.4620056	-26.28000069	5.295396328	15.32994843	15.76905346	1.0
166	-45.70000076	109.4620056	-26.28000069	5.284772396	15.28486347	15.73042583	1.0
167	-45.70000076	109.4620056	-26.28000069	5.272843361	15.22419167	15.6919384	1.0
[RightArm]
164	-105.9280014	-5.248000145	-22.32099915	29.73268318	1.860650897	62.46948242	1.0
165	-105.9280014	-5.248000145	-22.32099915	29.73692703	1.866819501	62.48268509	1.0
166	-105.9280014	-5.248000145	-22.32099915	29.75411415	1.893723845	62.53055954	1.0
167	-105.9280014	-5.248000145	-22.32099915	29.77889442	1.929432511	62.58013535	1.0
[RightForeArm]
164	-278.414978	0	0	-7.166919204e-06	6.638962746	1.098159009e-05	1.0
165	-278.414978	0	0	-8.902450645e-06	6.622470379	1.104634612e-05	1.0
166	-278.414978	0	0	4.95680888e-06	6.620069504	2.848870645e-05	1.0
167	-278.414978	0	0	2.211972969e-05	6.622988701	5.515454632e-06	1.0
[RightHand]
164	-283.2879944	0	0.0009999999311	-20.18638611	1.68374157	6.016277313	1.0
165	-283.2879944	0	0.0009999999311	-20.17481041	1.709252954	6.075997353	1.0
166	-283.2879944	0	0.0009999999311	-20.15937805	1.704399109	6.05300045	1.0
167	-283.2879944	0	0.0009999999311	-20.15083313	1.696460485	6.022975922	1.0
[RightHandPinky1]
164	-80.76699829	-4.885000229	-38.06000137	-1.507175922	-4.696118355	26.50587463	1.0
165	-80.76699829	-4.885000229	-38.06000137	-1.507175922	-4.696118355	26.50587463	1.0
166	-80.76699829	-4.885000229	-38.06000137	-1.507175922	-4.696118355	26.50587463	1.0
167	-80.76699829	-4.885000229	-38.06000137	-1.507175922	-4.696118355	26.50587463	1.0
[RightHandPinky2]
164	-36	0	0.0009999999311	-0.2127676606	-1.388874292	17.43785858	1.0
165	-36	0	0.0009999999311	-0.2127676606	-1.388874292	17.43785858	1.0
166	-36	0	0.0009999999311	-0.2127676606	-1.388874292	17.43785858	1.0
167	-36	0	0.0009999999311	-0.2127676606	-1.388874292	17.43785858	1.0
[RightHandPinky3]
164	-21.14200211	0	0	-0.1919144988	-1.32059598	16.53641129	1.0
165	-21.14200211	0	0	-0.1919144988	-1.32059598	16.53641129	1.0
166	-21.14200211	0	0	-0.1919144988	-1.32059598	16.53641129	1.0
167	-21.14200211	0	0	-0.1919144988	-1.32059598	16.53641129	1.0
[RightHandPinky4]
164	-19.75699997	0	0	0	0	0	1.0
165	-19.75699997	0	0	0	0	0	1.0
166	-19.75699997	0	0	0	0	0	1.0
167	-19.75699997	0	0	0	0	0	1.0
[RightHandRing1]
164	-91.03599548	-0.4390000105	-18.65100098	-1.045235753	-2.883111477	20.47788429	1.0
165	-91.03599548	-0.4390000105	-18.65100098	-1.045235753	-2.883111477	20.47788429	1.0
166	-91.03599548	-0.4390000105	-18.65100098	-1.045235753	-2.883111477	20.47788429	1.0
167	-91.03599548	-0.4390000105	-18.65100098	-1.045235753	-2.883111477	20.47788429	1.0
[RightHandRing2]
164	-31.54000092	0	0	-0.3066971898	-1.658752441	20.94926834	1.0
165	-31.54000092	0	0	-0.3066971898	-1.658752441	20.94926834	1.0
166	-31.54000092	0	0	-0.3066971898	-1.658752441	20.94926834	1.0
167	-31.54000092	0	0	-0.3066971898	-1.658752441	20.94926834	1.0
[RightHandRing3]
164	-29.37700081	0	0	-0.2245407403	-1.425854325	17.89771652	1.0
165	-29.37700081	0	0	-0.2245407403	-1.425854325	17.89771652	1.0
166	-29.37700081	0	0	-0.2245407403	-1.425854325	17.89771652	1.0
167	-29.37700081	0	0	-0.2245407403	-1.425854325	17.89771652	1.0
[RightHandRing4]
164	-26.47500038	0	0	0	0	0	1.0
165	-26.47500038	0	0	0	0	0	1.0
166	-26.47500038	0	0	0	0	0	1.0
167	-26.47500038	0	0	0	0	0	1.0
[RightHandMiddle1]
164	-95.32500458	0	0	-0.7017197609	-2.087752104	15.0152874	1.0
165	-95.32500458	0	0	-0.7017197609	-2.087752104	15.0152874	1.0
166	-95.32500458	0	0	-0.7017197609	-2.087752104	15.0152874	1.0
167	-95.32500458	0	0	-0.7017197609	-2.087752104	15.0152874	1.0
[RightHandMiddle2]
164	-36.98199844	0	0	-0.213228479	-1.390354872	17.43750381	1.0
165	-36.98199844	0	0	-0.213228479	-1.390354872	17.43750381	1.0
166	-36.98199844	0	0	-0.213228479	-1.390354872	17.43750381	1.0
167	-36.98199844	0	0	-0.213228479	-1.390354872	17.43750381	1.0
[RightHandMiddle3]
164	-29.50900078	0	0	-0.2384106964	-1.470119596	18.44692802	1.0
165	-29.50900078	0	0	-0.2384106964	-1.470119596	18.44692802	1.0
166	-29.50900078	0	0	-0.2384106964	-1.470119596	18.44692802	1.0
167	-29.50900078	0	0	-0.2384106964	-1.470119596	18.44692802	1.0
[RightHandMiddle4]
164	-28.3390007	0	0.0009999999311	0	0	0	1.0
165	-28.3390007	0	0.0009999999311	0	0	0	1.0
166	-28.3390007	0	0.0009999999311	0	0	0	1.0
167	-28.3390007	0	0.0009999999311	0	0	0	1.0
[RightHandIndex1]
164	-91.08300018	-5.167999744	22.60099792	0.1884763837	1.25192976	6.825599194	1.0
165	-91.08300018	-5.167999744	22.60099792	0.1884763837	1.25192976	6.825599194	1.0
166	-91.08300018	-5.167999744	22.60099792	0.1884763837	1.25192976	6.825599194	1.0
167	-91.08300018	-5.167999744	22.60099792	0.1884763837	1.25192976	6.825599194	1.0
[RightHandIndex2]
164	-36.76399994	0	0	-0.2125098109	-1.388050556	17.40767097	1.0
165	-36.76399994	0	0	-0.2125098109	-1.388050556	17.40767097	1.0
166	-36.76399994	0	0	-0.2125098109	-1.388050556	17.40767097	1.0
167	-36.76399994	0	0	-0.2125098109	-1.388050556	17.40767097	1.0
[RightHandIndex3]
164	-28.83100128	0	0	-0.04576345533	-0.650116384	8.053516388	1.0
165	-28.83100128	0	0	-0.04576345533	-0.650116384	8.053516388	1.0
166	-28.83100128	0	0	-0.04576345533	-0.650116384	8.053516388	1.0
167	-28.83100128	0	0	-0.04576345533	-0.650116384	8.053516388	1.0
[RightHandIndex4]
164	-23.92700005	0	0	0	0	0	1.0
165	-23.92700005	0	0	0	0	0	1.0
166	-23.92700005	0	0	0	0	0	1.0
167	-23.92700005	0	0	0	0	0	1.0
[RightHandThumb1]
164	-24.64799881	-15.72700024	26.82600021	-1.658462524	-0.2891407609	-4.221328735	1.0
165	-24.64799881	-15.72700024	26.82600021	-1.658462524	-0.2891407609	-4.221328735	1.0
166	-24.64799881	-15.72700024	26.82600021	-1.658462524	-0.2891407609	-4.221328735	1.0
167	-24.64799881	-15.72700024	26.82600021	-1.658462524	-0.2891407609	-4.221328735	1.0
[RightHandThumb2]
164	-32.29800034	-18.64699936	18.64699936	22.25259209	-23.88967514	-24.282444	1.0
165	-32.29800034	-18.64699936	18.64699936	22.25259209	-23.88967514	-24.282444	1.0
166	-32.29800034	-18.64699936	18.64699936	22.25259209	-23.88967514	-24.282444	1.0
167	-32.29800034	-18.64699936	18.64699936	22.25259209	-23.88967514	-24.282444	1.0
[RightHandThumb3]
164	-26.52600098	-15.31399918	15.31399918	-14.47830296	-6.743862152	-11.36570263	1.0
165	-26.52600098	-15.31399918	15.31399918	-14.47830296	-6.743862152	-11.36570263	1.0
166	-26.52600098	-15.31399918	15.31399918	-14.47830296	-6.743862152	-11.36570263	1.0
167	-26.52600098	-15.31399918	15.31399918	-14.47830296	-6.743862152	-11.36570263	1.0
[RightHandThumb4]
164	-19.54599953	-11.28499985	11.28499985	0	0	0	1.0
165	-19.54599953	-11.28499985	11.28499985	0	0	0	1.0
166	-19.54599953	-11.28499985	11.28499985	0	0	0	1.0
167	-19.54599953	-11.28499985	11.28499985	0	0	0	1.0
[LeftUpLeg]
164	82.07800293	-67.51699829	-15.99599934	-7.640134811	16.5334816	7.770657063	1.0
165	82.07800293	-67.51699829	-15.99599934	-7.685611725	16.50944138	7.75906086	1.0
166	82.07800293	-67.51699829	-15.99599934	-7.726963997	16.48226357	7.74710989	1.0
167	82.07800293	-67.51699829	-15.99599934	-7.754721642	16.45290184	7.733910561	1.0
[LeftLeg]
164	0	-443.7049866	2.845999956	12.23382092	0.6056421995	4.499200821	1.0
165	0	-443.7049866	2.845999956	12.23628807	0.6539866328	4.506150723	1.0
166	0	-443.7049866	2.845999956	12.20470333	0.7075937986	4.513446331	1.0
167	0	-443.7049866	2.845999956	12.1637764	0.7599981427	4.522201538	1.0
[LeftFoot]
164	0	-444.2789917	-29.8219986	1.10061717	0.6889679432	-7.284416199	1.0
165	0	-444.2789917	-29.8219986	1.117931724	0.6883659363	-7.277752876	1.0
166	0	-444.2789917	-29.8219986	1.146826029	0.688812077	-7.277842522	1.0
167	0	-444.2789917	-29.8219986	1.181067824	0.688627243	-7.270810127	1.0
[LeftToeBase]
164	0	-87.28699493	107.1060028	-4.899437904	-7.250275303e-06	1.841300445e-06	1.0
165	0	-87.28699493	107.1060028	-4.899995327	-4.960560091e-06	1.099655719e-06	1.0
166	0	-87.28699493	107.1060028	-4.896416664	3.330944082e-06	2.425825642e-06	1.0
167	0	-87.28699493	107.1060028	-4.894190788	3.289261258e-06	3.11265012e-06	1.0
[RightUpLeg]
164	-82.07800293	-67.51699829	-15.99599934	0.1666319966	-10.6132679	3.242028475	1.0
165	-82.07800293	-67.51699829	-15.99599934	0.1183770299	-10.6027565	3.248012066	1.0
166	-82.07800293	-67.51699829	-15.99599934	0.07917238027	-10.58637142	3.259139061	1.0
167	-82.07800293	-67.51699829	-15.99599934	0.05307911336	-10.57090569	3.266941309	1.0
[RightLeg]
164	0	-443.7049866	2.861999989	9.131363869	-9.145187378	-4.790426731	1.0
165	0	-443.7049866	2.861999989	9.124139786	-9.143930435	-4.788140774	1.0
166	0	-443.7049866	2.861999989	9.074445724	-9.1472435	-4.776995182	1.0
167	0	-443.7049866	2.861999989	9.010654449	-9.150484085	-4.76618576	1.0
[RightFoot]
164	0	-444.2770081	-29.83799934	-4.679333687	-1.331360459	3.28777647	1.0
165	0	-444.2770081	-29.83799934	-4.638957024	-1.327721357	3.289143801	1.0
166	0	-444.2770081	-29.83799934	-4.581537724	-1.330167055	3.284876347	1.0
167	0	-444.2770081	-29.83799934	-4.517565727	-1.328064442	3.280982733	1.0
[RightToeBase]
164	0	-87.28699493	107.1060028	-7.164507866	-4.741249541e-06	-4.773580145e-07	1.0
165	0	-87.28699493	107.1060028	-7.16194582	-5.861872765e-08	-8.778345091e-07	1.0
166	0	-87.28699493	107.1060028	-7.149177074	3.674571417e-05	-2.458258223e-06	1.0
167	0	-87.28699493	107.1060028	-7.140236378	2.133964881e-05	1.115548571e-06	1.0
[EndOfFile]
